<svg width="17" height="14" viewBox="0 0 17 14" fill="none" xmlns="http://www.w3.org/2000/svg">
<path d="M16.6892 2.12912C16.1013 2.38965 15.4697 2.56568 14.8057 2.64525C15.4908 2.2353 16.0034 1.59008 16.2477 0.82999C15.6041 1.21233 14.8996 1.48145 14.1649 1.62566C13.6709 1.09817 13.0165 0.74854 12.3034 0.631053C11.5903 0.513567 10.8584 0.634798 10.2212 0.975923C9.58409 1.31705 9.07739 1.85898 8.77981 2.51759C8.48223 3.1762 8.41041 3.91463 8.5755 4.61823C7.27123 4.55274 5.99529 4.21374 4.83051 3.62322C3.66573 3.0327 2.63813 2.20387 1.81441 1.19051C1.53275 1.67636 1.3708 2.23967 1.3708 2.83959C1.37049 3.37966 1.50349 3.91145 1.75799 4.38779C2.0125 4.86413 2.38065 5.27029 2.82977 5.57022C2.3089 5.55365 1.79953 5.41291 1.34405 5.15971V5.20196C1.34399 5.95942 1.60601 6.69358 2.08563 7.27986C2.56525 7.86613 3.23294 8.26841 3.9754 8.41844C3.49221 8.54921 2.98562 8.56847 2.4939 8.47477C2.70338 9.12653 3.11142 9.69647 3.66091 10.1048C4.21039 10.5131 4.87381 10.7394 5.55829 10.7519C4.39635 11.6641 2.96136 12.1589 1.48417 12.1567C1.2225 12.1568 0.961051 12.1415 0.701172 12.1109C2.20061 13.075 3.94606 13.5867 5.72869 13.5847C11.7631 13.5847 15.062 8.58673 15.062 4.25208C15.062 4.11125 15.0585 3.96902 15.0521 3.82819C15.6938 3.36415 16.2477 2.78952 16.6878 2.13123L16.6892 2.12912Z" fill="black"/>
</svg>
