<svg width="16" height="15" viewBox="0 0 16 15" fill="none" xmlns="http://www.w3.org/2000/svg">
<path fill-rule="evenodd" clip-rule="evenodd" d="M6.27114 5.27602H9.04013V6.6553C9.439 5.86203 10.4619 5.14928 11.9985 5.14928C14.9442 5.14928 15.6435 6.72836 15.6435 9.62559V14.9913H12.6613V10.2854C12.6613 8.63549 12.2624 7.70504 11.247 7.70504C9.83862 7.70504 9.25336 8.70781 9.25336 10.2847V14.9913H6.27114V5.27602ZM1.15739 14.8646H4.1396V5.14928H1.15739V14.8646ZM4.5668 1.98142C4.56692 2.23139 4.51734 2.47888 4.42096 2.70952C4.32459 2.94016 4.18333 3.14934 4.0054 3.32491C3.64485 3.68324 3.15682 3.88382 2.6485 3.88259C2.14106 3.88224 1.65416 3.68218 1.29308 3.32566C1.11579 3.14949 0.975015 2.94007 0.878807 2.70941C0.782599 2.47874 0.732854 2.23135 0.732422 1.98142C0.732422 1.47668 0.933721 0.993565 1.29382 0.63719C1.65459 0.280188 2.1417 0.0800382 2.64924 0.0802614C3.15771 0.0802614 3.6453 0.280815 4.0054 0.63719C4.36476 0.993565 4.5668 1.47668 4.5668 1.98142Z" fill="black"/>
</svg>
